<?xml version="1.0" encoding="UTF-8"?>
<!DOCTYPE svg PUBLIC "-//W3C//DTD SVG 1.1//EN" "http://www.w3.org/Graphics/SVG/1.1/DTD/svg11.dtd">
<!-- Creator: CorelDRAW 2020 (64-Bit) -->
<svg xmlns="http://www.w3.org/2000/svg" xml:space="preserve" width="1.17709in" height="0.322913in" version="1.1" style="shape-rendering:geometricPrecision; text-rendering:geometricPrecision; image-rendering:optimizeQuality; fill-rule:evenodd; clip-rule:evenodd"
viewBox="0 0 1177.09 322.91"
 xmlns:xlink="http://www.w3.org/1999/xlink"
 xmlns:xodm="http://www.corel.com/coreldraw/odm/2003">
 <defs>
  <style type="text/css">
   <![CDATA[
    .fil0 {fill:#FE5150;fill-rule:nonzero}
   ]]>
  </style>
 </defs>
 <g id="Layer_x0020_1">
  <metadata id="CorelCorpID_0Corel-Layer"/>
  <path class="fil0" d="M58.54 17.44c18.01,-11.63 37.65,-17.44 58.91,-17.44 21.51,0 41.27,5.81 59.28,17.44 18.01,11.63 32.27,27.46 42.77,47.51 10.51,19.8 15.76,41.45 15.76,64.96 0,23.5 -5.25,45.28 -15.76,65.32 -10.5,19.8 -24.76,35.51 -42.77,47.14 -18.01,11.63 -37.77,17.44 -59.28,17.44 -21.26,0 -40.9,-5.81 -58.91,-17.44 -18.01,-11.63 -32.27,-27.34 -42.78,-47.14 -10.5,-20.04 -15.76,-41.82 -15.76,-65.32 0,-23.51 5.26,-45.16 15.76,-64.96 10.51,-20.04 24.76,-35.88 42.78,-47.51zm24.01 216.39c10.76,10.64 22.39,15.96 34.89,15.96 12.76,0 24.39,-5.32 34.89,-15.96 10.76,-10.64 19.13,-25.24 25.14,-43.8 6.25,-18.56 9.38,-38.72 9.38,-60.5 0,-21.78 -3.13,-41.82 -9.38,-60.13 -6.01,-18.56 -14.39,-33.16 -25.14,-43.8 -10.5,-10.89 -22.14,-16.33 -34.89,-16.33 -12.51,0 -24.14,5.44 -34.89,16.33 -10.51,10.64 -18.89,25.24 -25.14,43.8 -6,18.31 -9.01,38.35 -9.01,60.13 0,21.78 3,41.94 9.01,60.5 6.25,18.56 14.63,33.16 25.14,43.8z"/>
  <path class="fil0" d="M368.43 67.18c20.51,5.44 37.39,16.95 50.65,34.52 13.26,17.57 19.89,37.74 19.89,60.5 0,26.97 -9.13,50.11 -27.39,69.41 -18.26,19.06 -40.27,28.58 -66.04,28.58 -15.01,0 -29.14,-3.59 -42.4,-10.76l0 27.83 0 -0.37c0,2.48 0,5.57 0,9.28 0.25,3.96 1.25,10.02 3,18.19 1.75,8.41 4.25,14.6 7.5,18.56l-72.04 0c6.75,-8.17 10.26,-22.89 10.5,-44.17l0 -168.51c0,0 0,-0.13 0,-0.37l0 -1.48c-0.25,-21.03 -3.75,-35.76 -10.5,-44.17l72.04 0c-3.25,4.21 -5.76,10.15 -7.5,17.82 -1.75,7.42 -2.63,13.98 -2.63,19.67l-0.38 8.54c0,0 0,-0.13 0,-0.37 0,33.65 0,51.22 0,52.71 0,23.26 4.13,43.18 12.38,59.76 8.26,16.58 18.26,24.87 30.02,24.87 2.25,0 4.5,-0.37 6.76,-1.11 2.5,-1.98 4.5,-4.33 6,-7.05 4,-6.93 3.88,-15.46 -0.37,-25.61 -1,-2.72 -2,-5.44 -3,-8.17 -1,-1.98 -2.5,-5.2 -4.5,-9.65 -1.75,-4.46 -3.5,-8.41 -5.25,-11.88 -1.5,-3.71 -3.5,-8.41 -6,-14.11 -2.25,-5.69 -4.25,-10.64 -6,-14.85 -1.5,-4.45 -3.38,-9.65 -5.63,-15.59 -2,-6.19 -3.5,-11.38 -4.5,-15.59 -1,-4.46 -2.13,-9.41 -3.38,-14.85 -1,-5.44 -1.37,-9.78 -1.12,-12.99 0.25,-3.46 0.75,-7.3 1.5,-11.51 1.5,-5.69 4.25,-10.14 8.26,-13.36 4.25,-3.46 8.38,-5.44 12.38,-5.94 4.25,-0.74 8.63,-0.87 13.13,-0.37 4.75,0.25 8.13,0.74 10.13,1.48 2.25,0.5 3.75,0.87 4.5,1.11zm-6.75 173.33c7.75,-6.43 14,-16.7 18.76,-30.81 4.75,-14.1 7.13,-29.82 7.13,-47.14 0,-30.69 -6.38,-54.31 -19.13,-70.89 -7,-9.16 -14.63,-13.73 -22.89,-13.73 -1.25,0 -2.5,0.12 -3.75,0.37 -9.75,1.73 -13.26,13.36 -10.5,34.89 1.75,15.59 7.25,36.25 16.51,61.98 4,11.38 8.63,23.76 13.89,37.12 4.5,10.89 4.5,20.29 0,28.21z"/>
  <path class="fil0" d="M578.63 182.98l50.28 0c-4.5,22.27 -15.26,40.7 -32.27,55.3 -17.01,14.35 -36.65,21.53 -58.91,21.53 -25.76,0 -47.78,-9.52 -66.04,-28.58 -18.26,-19.06 -27.39,-42.07 -27.39,-69.04 0,-27.22 9.13,-50.36 27.39,-69.41 18.26,-19.06 40.27,-28.58 66.04,-28.58 22.01,0 41.52,7.18 58.54,21.53 17.01,14.35 27.89,32.41 32.64,54.19l-4.88 0c-4.75,0 -9.76,0.25 -15.01,0.74 -5,0.24 -11.88,0.99 -20.64,2.22 -8.76,0.99 -17.01,2.48 -24.76,4.46 -7.5,1.73 -15.38,4.45 -23.64,8.17 -8.25,3.46 -15.26,7.55 -21.01,12.25 -5.5,4.45 -9.88,10.39 -13.13,17.81 -3,7.18 -4,15.09 -3,23.76 4,11.38 9,20.41 15.01,27.09 6.26,6.43 12.88,9.65 19.89,9.65 9.76,0 18.39,-5.81 25.89,-17.44 7.5,-11.88 12.51,-27.09 15.01,-45.65zm-82.92 -11.5c14.26,-18.81 41.65,-30.93 82.17,-36.38 -1.75,-11.13 -4.63,-21.03 -8.63,-29.69 -4,-8.91 -8.76,-15.83 -14.26,-20.78 -5.25,-5.2 -11,-7.8 -17.26,-7.8 -11.5,0 -21.39,8.29 -29.64,24.87 -8.25,16.58 -12.38,36.5 -12.38,59.76 0,3.22 0,6.56 0,10.02z"/>
  <path class="fil0" d="M801.94 104.3l0 115.06c0.75,19.3 4.13,32.79 10.13,40.46l-71.66 0c5.5,-6.68 8.88,-18.06 10.13,-34.15 -10.26,21.28 -28.02,32.66 -53.28,34.15 -1,0 -2.25,0 -3.75,0 -3.25,-0.24 -6.63,-0.62 -10.13,-1.11 -3.25,-0.74 -7.5,-2.22 -12.76,-4.45 -5,-2.47 -9.38,-5.57 -13.13,-9.28 -3.5,-3.96 -6.63,-9.52 -9.38,-16.7 -2.75,-7.43 -4.13,-15.96 -4.13,-25.61l0 -101.7c-1,-17.57 -4.38,-29.82 -10.13,-36.75l71.67 0c-6.26,7.67 -9.76,21.28 -10.51,40.83l0 100.96c0,0.5 0.13,1.86 0.37,4.08 0.25,2.23 0.88,5.44 1.88,9.65 1.25,3.96 2.75,7.67 4.5,11.13 2,3.22 4.76,5.94 8.26,8.17 3.75,1.98 8.13,2.6 13.13,1.85 12,-2.22 21.26,-14.23 27.76,-36l0 -100.59c-0.75,-19.3 -4.25,-32.66 -10.5,-40.09l71.66 0c-6,7.43 -9.38,20.79 -10.13,40.09z"/>
  <path class="fil0" d="M1098.13 220.84c0.75,18.56 4.14,31.55 10.14,38.97l-71.67 0c6.25,-7.42 9.64,-20.91 10.14,-40.46l0 -101.33c0,-0.74 -0.13,-2.11 -0.38,-4.08 -0.25,-2.23 -1,-5.32 -2.25,-9.28 -1.01,-4.21 -2.39,-7.92 -4.13,-11.14 -1.75,-3.46 -4.5,-6.31 -8.25,-8.54 -3.75,-2.23 -8.01,-2.85 -12.76,-1.85 -13.26,2.47 -23.14,16.58 -29.64,42.31l0 97.25c1,17.81 4.38,30.19 10.13,37.11l-71.67 0c3.25,-3.96 5.75,-9.77 7.5,-17.44 1.75,-7.67 2.75,-14.35 3,-20.04l0 -8.54 0 0.37 0 -96.13c0,-0.74 -0.13,-2.11 -0.37,-4.08 -0.25,-2.23 -1,-5.32 -2.25,-9.28 -1,-4.21 -2.37,-7.92 -4.13,-11.14 -1.75,-3.46 -4.5,-6.31 -8.26,-8.54 -3.75,-2.23 -8,-2.85 -12.76,-1.85 -12.26,2.22 -21.51,14.23 -27.76,36l0 100.22c0.5,19.55 3.87,33.04 10.13,40.46l-71.67 0c6.25,-7.42 9.63,-20.91 10.13,-40.46l0 -114.69c-0.5,-19.55 -3.88,-33.04 -10.13,-40.46l71.67 0c-5.25,6.44 -8.5,17.82 -9.76,34.15 10,-21.28 27.64,-32.66 52.9,-34.15 1,0 2.38,0 4.13,0 3.75,0 7.5,0.62 11.26,1.86 4,0.99 8.63,2.85 13.88,5.57 5.5,2.48 10.26,6.8 14.26,12.99 4.25,5.94 7.13,13.24 8.63,21.9 1.5,-4.2 3.37,-8.29 5.63,-12.25 2.25,-3.96 5.5,-8.29 9.76,-12.99 4.25,-4.7 9.88,-8.54 16.89,-11.5 7.25,-3.22 15.38,-5.07 24.39,-5.57 1,0 2.25,0 3.75,0 3.25,0 6.5,0.37 9.75,1.11 3.5,0.74 7.76,2.35 12.76,4.83 5,2.23 9.37,5.32 13.13,9.28 3.75,3.71 7,9.28 9.75,16.7 2.75,7.18 4.13,15.59 4.13,25.24l0 99.47z"/>
  <path class="fil0" d="M1154.57 47.01l12.81 8.97c4.18,2.68 7.41,4.12 9.7,4.33l-1.25 1.54 -1.87 2.78 -2.5 3.09 -1.87 2.48 -1.25 1.85c-0.84,-2.06 -3.24,-4.64 -7.2,-7.73l-10 -7.11 0 12.37c0.21,4.95 0.94,8.35 2.19,10.2l-14.7 0c1.25,-1.85 1.87,-5.26 1.87,-10.2l0 -12.69 -10.31 7.43c-3.97,3.09 -6.37,5.67 -7.2,7.73l-1.25 -1.85 -1.87 -2.48 -2.19 -3.09 -1.87 -2.78 -1.25 -1.54c2.29,-0.21 5.52,-1.65 9.69,-4.33l12.51 -8.97 -12.51 -8.97c-4.17,-2.68 -7.39,-4.13 -9.69,-4.33l1.25 -1.55 1.87 -2.78 2.19 -3.09 1.87 -2.48 1.25 -1.85c0.83,2.27 3.23,4.84 7.2,7.73l10.31 7.42 0 -12.68c-0.2,-4.95 -0.94,-8.35 -2.19,-10.2l14.7 0c-1.25,1.85 -1.98,5.26 -2.19,10.2l0 12.68 10.31 -7.42c3.96,-2.89 6.35,-5.46 7.2,-7.73l1.25 1.85 1.87 2.48 2.5 3.09 1.87 2.78 1.25 1.55c-2.29,0.2 -5.52,1.65 -9.7,4.33l-12.81 8.97z"/>
 </g>
</svg>
