<?xml version="1.0" encoding="UTF-8"?>
<!DOCTYPE svg PUBLIC "-//W3C//DTD SVG 1.1//EN" "http://www.w3.org/Graphics/SVG/1.1/DTD/svg11.dtd">
<!-- Creator: CorelDRAW 2020 (64-Bit) -->
<svg xmlns="http://www.w3.org/2000/svg" xml:space="preserve" width="1.83601in" height="0.503043in" version="1.1" style="shape-rendering:geometricPrecision; text-rendering:geometricPrecision; image-rendering:optimizeQuality; fill-rule:evenodd; clip-rule:evenodd"
viewBox="0 0 1836.01 503.04"
 xmlns:xlink="http://www.w3.org/1999/xlink"
 xmlns:xodm="http://www.corel.com/coreldraw/odm/2003">
 <defs>
  <style type="text/css">
   <![CDATA[
    .fil0 {fill:#D0CED3}
   ]]>
  </style>
 </defs>
 <g id="Layer_x0020_1">
  <metadata id="CorelCorpID_0Corel-Layer"/>
  <g id="_2347558458112">
   <path class="fil0" d="M63.03 415.99c-0.67,-100.12 -14.49,-213 40.18,-280.58 45.16,-55.83 136.41,-99.48 232.61,-52.12 62.38,30.71 123.34,112.11 97.84,215.06 -19.15,77.31 -87.51,140.02 -181.29,141.77l-1.23 62.92c268.36,-5.89 345.64,-354.29 112.39,-475.47 -197.07,-102.38 -434.2,97.17 -343.67,321.95 8.58,21.32 29.4,58.15 43.17,66.46l-0 0.01zm63.8 52.95c14.36,12.15 40.63,21.39 61.7,25.33l-0.02 -131.39c20.1,2.52 48.99,26.95 105.83,6.93 109.27,-38.48 108.25,-192.93 4.55,-234.09 -78.53,-31.17 -147.11,18.28 -167.22,77.84 -9.14,27.08 -6.05,213.23 -4.83,255.37l0 0.01zm124.59 -279.61c34.68,0 62.8,28.11 62.8,62.8 0,34.68 -28.11,62.8 -62.8,62.8 -34.68,0 -62.8,-28.11 -62.8,-62.8 0,-34.68 28.11,-62.8 62.8,-62.8z"/>
   <path class="fil0" d="M764.27 87.2c-70.73,10.32 -130.13,72.06 -119.94,155.35 8.52,69.62 74.32,131.15 155.85,120.21 69.93,-9.39 129.6,-73.3 118.83,-156.49 -9.08,-70.19 -74.66,-130.76 -154.75,-119.07l0.01 0zm287.89 -15.13c-40.29,17.82 -16.33,76.72 24.82,62.68 39.49,-13.48 20.23,-82.6 -24.82,-62.68zm525.37 0.49c-44.06,22.89 -10.86,78.16 28.43,60.88 38.6,-16.97 12.59,-82.19 -28.43,-60.88zm-537.62 285.57l51.45 -0.36 -0.02 -199.41 -50.78 -1.31 -0.65 201.08 0 0zm525.13 -0.81l51.62 0.93 -0.12 -200.78 -50.93 -0.06 -0.57 199.91zm-615.29 0.93l51.51 -0.02 -0.05 -280.91 -4.56 -0.02 -46.91 0.04 0.01 280.91 0 0.01zm232.09 -102.02c-12.41,16.41 -23.94,33.03 -35.46,50.09 -12.19,18.05 -24.74,32.83 -35.54,51.64l62.35 -0.24 37.27 -59.11c8.86,5.54 13.79,17.63 21.46,28.97 7.08,10.46 13.82,19.47 19.04,30.37l62.34 0.26c-10.36,-21.32 -54.89,-74.65 -70.98,-102.35 5.15,-14.72 62.37,-81.43 70.56,-99.41l-62.33 -0.22c-6.49,15.83 -27.2,39.24 -36.76,56.31 -24.91,-18.95 -28.03,-56.44 -52.76,-56.44l-49.99 0.12c10.35,21.11 62.15,80.24 70.81,100.01l0.01 -0zm503.26 -80.96c-11.64,-7.95 -10.17,-19.28 -29.64,-17.2l-0.21 199 51.29 1.15c-0.85,-31.12 -0.11,-62.33 -0.24,-93.05 -0.14,-30.96 3.77,-59.62 37.68,-59.95 33.83,-0.33 39.33,24.71 39.2,56.78 -0.13,32.08 -0.11,64.2 -0.01,96.3l51.04 -0.11c-0.61,-67.69 21.63,-188.97 -75.3,-203.72 -35.76,-5.44 -52.47,7.98 -73.84,20.83l0.01 0zm-323.99 4.88c-6.03,-12.92 -10.28,-23.82 -28.47,-22.21l-0.32 276.26 50.54 0.52 1.06 -88.78c27.41,9.76 61.5,32.88 110.7,-1.38 91.23,-63.5 26.39,-223.02 -82.51,-191.15 -19.43,5.68 -22.89,10.06 -36.39,19.31 -13.06,8.95 2.04,2.96 -14.62,7.43l0 -0.01zm73.68 20.76c30.31,0 54.89,24.57 54.89,54.89 0,30.32 -24.57,54.89 -54.89,54.89 -30.32,0 -54.89,-24.57 -54.89,-54.89 0,-30.31 24.57,-54.89 54.89,-54.89zm-653.05 -60.69c46.76,0 84.66,37.9 84.66,84.66 0,46.76 -37.9,84.67 -84.66,84.67 -46.76,0 -84.66,-37.91 -84.66,-84.67 0,-46.76 37.91,-84.66 84.66,-84.66z"/>
  </g>
 </g>
</svg>
